<mxfile host="app.diagrams.net" modified="2025-05-26T12:00:00.000Z" agent="5.0 (Windows)" etag="12345" version="15.8.7" type="device">
  <diagram id="api-flow" name="API Flow">
    <mxGraphModel dx="1044" dy="624" grid="1" gridSize="10" guides="1" tooltips="1" connect="1" arrows="1" fold="1" page="1" pageScale="1" pageWidth="827" pageHeight="1169">
      <root>
        <mxCell id="0"/>
        <mxCell id="1" parent="0"/>
        
        <!-- HTTP Request -->
        <mxCell id="2" value="HTTP Request" style="rounded=1;fillColor=#DAE8FC;strokeColor=#6C8EBF;" vertex="1" parent="1">
          <mxGeometry x="20" y="20" width="140" height="60" as="geometry"/>
        </mxCell>
        
        <!-- Controllers -->
        <mxCell id="3" value="AdminController" style="rounded=1;fillColor=#FFF2CC;strokeColor=#D6B656;" vertex="1" parent="1">
          <mxGeometry x="200" y="20" width="160" height="60" as="geometry"/>
        </mxCell>
        <mxCell id="4" value="UserController" style="rounded=1;fillColor=#FFF2CC;strokeColor=#D6B656;" vertex="1" parent="1">
          <mxGeometry x="200" y="120" width="160" height="60" as="geometry"/>
        </mxCell>
        
        <!-- Services -->
        <mxCell id="5" value="LostItemService" style="rounded=1;fillColor=#E1D5E7;strokeColor=#9673A6;" vertex="1" parent="1">
          <mxGeometry x="400" y="20" width="160" height="60" as="geometry"/>
        </mxCell>
        <mxCell id="6" value="ClaimService" style="rounded=1;fillColor=#E1D5E7;strokeColor=#9673A6;" vertex="1" parent="1">
          <mxGeometry x="400" y="120" width="160" height="60" as="geometry"/>
        </mxCell>
        
        <!-- Factory -->
        <mxCell id="7" value="FileParsingStrategyFactory" style="rounded=1;fillColor=#D5E8D4;strokeColor=#82B366;" vertex="1" parent="1">
          <mxGeometry x="600" y="20" width="200" height="60" as="geometry"/>
        </mxCell>
        
        <!-- Strategies -->
        <mxCell id="8" value="PdfParsingStrategy\nCsvParsingStrategy" style="rounded=1;fillColor=#E1E0F8;strokeColor=#6C8EBF;" vertex="1" parent="1">
          <mxGeometry x="840" y="20" width="180" height="60" as="geometry"/>
        </mxCell>
        
        <!-- Repositories -->
        <mxCell id="9" value="LostItemRepository" style="rounded=1;fillColor=#F8CECC;strokeColor=#B85450;" vertex="1" parent="1">
          <mxGeometry x="600" y="120" width="160" height="60" as="geometry"/>
        </mxCell>
        <mxCell id="10" value="ClaimRepository\nUserRepository" style="rounded=1;fillColor=#F8CECC;strokeColor=#B85450;" vertex="1" parent="1">
          <mxGeometry x="600" y="200" width="160" height="60" as="geometry"/>
        </mxCell>
        
        <!-- Database -->
        <mxCell id="11" value="Database (MySQL/H2)" style="rounded=1;fillColor=#FFF;strokeColor=#000;" vertex="1" parent="1">
          <mxGeometry x="840" y="120" width="180" height="60" as="geometry"/>
        </mxCell>
        
        <!-- Edges -->
        <mxCell id="e1" style="edgeStyle=orthogonalEdgeStyle;rounded=0;endArrow=block;" edge="1" source="2" target="3" parent="1">
          <mxGeometry relative="1" as="geometry"/>
        </mxCell>
        <mxCell id="e2" style="edgeStyle=orthogonalEdgeStyle;rounded=0;endArrow=block;" edge="1" source="2" target="4" parent="1">
          <mxGeometry relative="1" as="geometry"/>
        </mxCell>
        <mxCell id="e3" style="edgeStyle=orthogonalEdgeStyle;rounded=0;endArrow=block;" edge="1" source="3" target="5" parent="1">
          <mxGeometry relative="1" as="geometry"/>
        </mxCell>
        <mxCell id="e4" style="edgeStyle=orthogonalEdgeStyle;rounded=0;endArrow=block;" edge="1" source="5" target="7" parent="1">
          <mxGeometry relative="1" as="geometry"/>
        </mxCell>
        <mxCell id="e5" style="edgeStyle=orthogonalEdgeStyle;rounded=0;endArrow=block;" edge="1" source="7" target="8" parent="1">
          <mxGeometry relative="1" as="geometry"/>
        </mxCell>
        <mxCell id="e6" style="edgeStyle=orthogonalEdgeStyle;rounded=0;endArrow=block;" edge="1" source="8" target="9" parent="1">
          <mxGeometry relative="1" as="geometry"/>
        </mxCell>
        <mxCell id="e7" style="edgeStyle=orthogonalEdgeStyle;rounded=0;endArrow=block;" edge="1" source="5" target="9" parent="1">
          <mxGeometry relative="1" as="geometry"/>
        </mxCell>
        <mxCell id="e8" style="edgeStyle=orthogonalEdgeStyle;rounded=0;endArrow=block;" edge="1" source="4" target="6" parent="1">
          <mxGeometry relative="1" as="geometry"/>
        </mxCell>
        <mxCell id="e9" style="edgeStyle=orthogonalEdgeStyle;rounded=0;endArrow=block;" edge="1" source="6" target="9" parent="1">
          <mxGeometry relative="1" as="geometry"/>
        </mxCell>
        <mxCell id="e10" style="edgeStyle=orthogonalEdgeStyle;rounded=0;endArrow=block;" edge="1" source="6" target="10" parent="1">
          <mxGeometry relative="1" as="geometry"/>
        </mxCell>
        <mxCell id="e11" style="edgeStyle=orthogonalEdgeStyle;rounded=0;endArrow=block;" edge="1" source="9" target="11" parent="1">
          <mxGeometry relative="1" as="geometry"/>
        </mxCell>
        <mxCell id="e12" style="edgeStyle=orthogonalEdgeStyle;rounded=0;endArrow=block;" edge="1" source="10" target="11" parent="1">
          <mxGeometry relative="1" as="geometry"/>
        </mxCell>
        
      </root>
    </mxGraphModel>
  </diagram>
</mxfile>
